<mxfile host="app.diagrams.net" agent="Mozilla/5.0 (Windows NT 10.0; Win64; x64) AppleWebKit/537.36 (KHTML, like Gecko) Chrome/127.0.0.0 Safari/537.36" version="24.7.7">
  <diagram name="第 1 页" id="QvSKaIkaGYja7V15P9HH">
    <mxGraphModel dx="1834" dy="891" grid="0" gridSize="10" guides="1" tooltips="1" connect="1" arrows="1" fold="1" page="0" pageScale="1" pageWidth="827" pageHeight="1169" math="0" shadow="0">
      <root>
        <mxCell id="0" />
        <mxCell id="1" parent="0" />
        <mxCell id="GzjMZUccyGTRzbvRXXpj-9" style="edgeStyle=none;curved=1;rounded=0;orthogonalLoop=1;jettySize=auto;html=1;exitX=0.5;exitY=0;exitDx=0;exitDy=0;entryX=0.5;entryY=1;entryDx=0;entryDy=0;fontSize=12;startSize=8;endSize=8;" edge="1" parent="1" source="GzjMZUccyGTRzbvRXXpj-1" target="GzjMZUccyGTRzbvRXXpj-8">
          <mxGeometry relative="1" as="geometry" />
        </mxCell>
        <mxCell id="GzjMZUccyGTRzbvRXXpj-10" value="2.拉取代码" style="edgeLabel;html=1;align=center;verticalAlign=middle;resizable=0;points=[];fontSize=12;rounded=0;" vertex="1" connectable="0" parent="GzjMZUccyGTRzbvRXXpj-9">
          <mxGeometry x="0.1702" y="-2" relative="1" as="geometry">
            <mxPoint x="2" y="8" as="offset" />
          </mxGeometry>
        </mxCell>
        <mxCell id="GzjMZUccyGTRzbvRXXpj-12" style="edgeStyle=none;curved=1;rounded=0;orthogonalLoop=1;jettySize=auto;html=1;exitX=0.5;exitY=1;exitDx=0;exitDy=0;entryX=0.5;entryY=0;entryDx=0;entryDy=0;fontSize=12;startSize=8;endSize=8;" edge="1" parent="1" source="GzjMZUccyGTRzbvRXXpj-1" target="GzjMZUccyGTRzbvRXXpj-11">
          <mxGeometry relative="1" as="geometry" />
        </mxCell>
        <mxCell id="GzjMZUccyGTRzbvRXXpj-13" value="5.构建镜像并推送到Harbor" style="edgeLabel;html=1;align=center;verticalAlign=middle;resizable=0;points=[];fontSize=12;rounded=0;" vertex="1" connectable="0" parent="GzjMZUccyGTRzbvRXXpj-12">
          <mxGeometry x="-0.0213" relative="1" as="geometry">
            <mxPoint as="offset" />
          </mxGeometry>
        </mxCell>
        <mxCell id="GzjMZUccyGTRzbvRXXpj-1" value="Jenkins" style="rounded=0;whiteSpace=wrap;html=1;fillColor=#f8cecc;strokeColor=#b85450;" vertex="1" parent="1">
          <mxGeometry x="175" y="170" width="120" height="60" as="geometry" />
        </mxCell>
        <mxCell id="GzjMZUccyGTRzbvRXXpj-3" style="edgeStyle=none;curved=1;rounded=0;orthogonalLoop=1;jettySize=auto;html=1;exitX=1;exitY=0.5;exitDx=0;exitDy=0;entryX=0;entryY=0.5;entryDx=0;entryDy=0;fontSize=12;startSize=8;endSize=8;" edge="1" parent="1" target="GzjMZUccyGTRzbvRXXpj-1">
          <mxGeometry relative="1" as="geometry">
            <mxPoint x="50" y="200" as="sourcePoint" />
          </mxGeometry>
        </mxCell>
        <mxCell id="GzjMZUccyGTRzbvRXXpj-7" value="1.触发构建" style="edgeLabel;html=1;align=center;verticalAlign=middle;resizable=0;points=[];fontSize=12;rounded=0;" vertex="1" connectable="0" parent="GzjMZUccyGTRzbvRXXpj-3">
          <mxGeometry x="-0.296" relative="1" as="geometry">
            <mxPoint x="12" as="offset" />
          </mxGeometry>
        </mxCell>
        <mxCell id="GzjMZUccyGTRzbvRXXpj-6" value="User" style="outlineConnect=0;fontColor=#232F3E;gradientColor=none;strokeColor=#232F3E;fillColor=#ffffff;dashed=0;verticalLabelPosition=bottom;verticalAlign=top;align=center;html=1;fontSize=12;fontStyle=0;aspect=fixed;shape=mxgraph.aws4.resourceIcon;resIcon=mxgraph.aws4.user;rounded=0;" vertex="1" parent="1">
          <mxGeometry x="-16" y="170" width="60" height="60" as="geometry" />
        </mxCell>
        <mxCell id="GzjMZUccyGTRzbvRXXpj-8" value="Gitlab&lt;br&gt;代码仓库" style="rounded=0;whiteSpace=wrap;html=1;fillColor=#dae8fc;strokeColor=#6c8ebf;" vertex="1" parent="1">
          <mxGeometry x="175" y="16" width="120" height="60" as="geometry" />
        </mxCell>
        <mxCell id="GzjMZUccyGTRzbvRXXpj-11" value="Harbor&lt;br&gt;镜像仓库" style="rounded=0;whiteSpace=wrap;html=1;fillColor=#dae8fc;strokeColor=#6c8ebf;" vertex="1" parent="1">
          <mxGeometry x="175" y="324" width="120" height="60" as="geometry" />
        </mxCell>
        <mxCell id="GzjMZUccyGTRzbvRXXpj-22" value="3.Maven打成Jar包&lt;br&gt;4.docker build镜像" style="shape=callout;whiteSpace=wrap;html=1;perimeter=calloutPerimeter;position2=1;rounded=0;" vertex="1" parent="1">
          <mxGeometry x="35" y="30" width="134" height="140" as="geometry" />
        </mxCell>
        <mxCell id="GzjMZUccyGTRzbvRXXpj-42" value="" style="group;fillColor=#eeeeee;strokeColor=#36393d;" vertex="1" connectable="0" parent="1">
          <mxGeometry x="425" y="17" width="443" height="368" as="geometry" />
        </mxCell>
        <mxCell id="GzjMZUccyGTRzbvRXXpj-38" value="" style="rounded=0;whiteSpace=wrap;html=1;dashed=1;fillColor=#eeeeee;strokeColor=#36393d;" vertex="1" parent="GzjMZUccyGTRzbvRXXpj-42">
          <mxGeometry width="443" height="368" as="geometry" />
        </mxCell>
        <mxCell id="GzjMZUccyGTRzbvRXXpj-43" style="edgeStyle=none;curved=1;orthogonalLoop=1;jettySize=auto;html=1;exitX=1;exitY=0.5;exitDx=0;exitDy=0;entryX=0;entryY=0.5;entryDx=0;entryDy=0;fontSize=12;startSize=8;endSize=8;" edge="1" parent="GzjMZUccyGTRzbvRXXpj-42" source="GzjMZUccyGTRzbvRXXpj-14" target="GzjMZUccyGTRzbvRXXpj-37">
          <mxGeometry relative="1" as="geometry" />
        </mxCell>
        <mxCell id="GzjMZUccyGTRzbvRXXpj-46" value="7.调度到&lt;br&gt;工作节点" style="edgeLabel;html=1;align=center;verticalAlign=middle;resizable=0;points=[];fontSize=12;" vertex="1" connectable="0" parent="GzjMZUccyGTRzbvRXXpj-43">
          <mxGeometry x="-0.2" y="1" relative="1" as="geometry">
            <mxPoint as="offset" />
          </mxGeometry>
        </mxCell>
        <mxCell id="GzjMZUccyGTRzbvRXXpj-14" value="K8S Master" style="rounded=0;whiteSpace=wrap;html=1;fillColor=#d5e8d4;strokeColor=#82b366;" vertex="1" parent="GzjMZUccyGTRzbvRXXpj-42">
          <mxGeometry x="39" y="160.0520607375271" width="120" height="47.89587852494577" as="geometry" />
        </mxCell>
        <mxCell id="GzjMZUccyGTRzbvRXXpj-41" value="" style="group" vertex="1" connectable="0" parent="GzjMZUccyGTRzbvRXXpj-42">
          <mxGeometry x="247" y="66.25596529284165" width="170" height="235.48806941431667" as="geometry" />
        </mxCell>
        <mxCell id="GzjMZUccyGTRzbvRXXpj-37" value="" style="rounded=0;whiteSpace=wrap;html=1;fillColor=#f5f5f5;fontColor=#333333;strokeColor=#666666;dashed=1;" vertex="1" parent="GzjMZUccyGTRzbvRXXpj-41">
          <mxGeometry width="170" height="235.48806941431667" as="geometry" />
        </mxCell>
        <mxCell id="GzjMZUccyGTRzbvRXXpj-26" value="K8S工作节点1" style="rounded=0;whiteSpace=wrap;html=1;fillColor=#d5e8d4;strokeColor=#82b366;container=0;" vertex="1" parent="GzjMZUccyGTRzbvRXXpj-41">
          <mxGeometry x="25" y="16.763557483731017" width="120" height="47.895878524945765" as="geometry" />
        </mxCell>
        <mxCell id="GzjMZUccyGTRzbvRXXpj-27" value="K8S工作节点2" style="rounded=0;whiteSpace=wrap;html=1;fillColor=#d5e8d4;strokeColor=#82b366;container=0;" vertex="1" parent="GzjMZUccyGTRzbvRXXpj-41">
          <mxGeometry x="25" y="91.00216919739695" width="120" height="47.895878524945765" as="geometry" />
        </mxCell>
        <mxCell id="GzjMZUccyGTRzbvRXXpj-28" value="K8S工作节点N" style="rounded=0;whiteSpace=wrap;html=1;fillColor=#d5e8d4;strokeColor=#82b366;container=0;" vertex="1" parent="GzjMZUccyGTRzbvRXXpj-41">
          <mxGeometry x="25" y="173.22342733188717" width="120" height="47.895878524945765" as="geometry" />
        </mxCell>
        <mxCell id="GzjMZUccyGTRzbvRXXpj-15" style="edgeStyle=none;curved=1;rounded=0;orthogonalLoop=1;jettySize=auto;html=1;exitX=1;exitY=0.5;exitDx=0;exitDy=0;fontSize=12;startSize=8;endSize=8;entryX=0;entryY=0.5;entryDx=0;entryDy=0;" edge="1" parent="1" source="GzjMZUccyGTRzbvRXXpj-1" target="GzjMZUccyGTRzbvRXXpj-14">
          <mxGeometry relative="1" as="geometry">
            <mxPoint x="398" y="200" as="targetPoint" />
          </mxGeometry>
        </mxCell>
        <UserObject label="6.SSH登录部署&lt;br&gt;使用kubectl apply" tooltip="" id="GzjMZUccyGTRzbvRXXpj-16">
          <mxCell style="edgeLabel;html=1;align=center;verticalAlign=middle;resizable=0;points=[];fontSize=12;rounded=0;" vertex="1" connectable="0" parent="GzjMZUccyGTRzbvRXXpj-15">
            <mxGeometry x="-0.1068" relative="1" as="geometry">
              <mxPoint as="offset" />
            </mxGeometry>
          </mxCell>
        </UserObject>
        <mxCell id="GzjMZUccyGTRzbvRXXpj-59" style="edgeStyle=orthogonalEdgeStyle;orthogonalLoop=1;jettySize=auto;html=1;exitX=0.5;exitY=0;exitDx=0;exitDy=0;entryX=1;entryY=0.5;entryDx=0;entryDy=0;fontSize=12;startSize=8;endSize=8;" edge="1" parent="1" source="GzjMZUccyGTRzbvRXXpj-37" target="GzjMZUccyGTRzbvRXXpj-8">
          <mxGeometry relative="1" as="geometry" />
        </mxCell>
        <mxCell id="GzjMZUccyGTRzbvRXXpj-60" value="8.拉取镜像运行" style="edgeLabel;html=1;align=center;verticalAlign=middle;resizable=0;points=[];fontSize=12;" vertex="1" connectable="0" parent="GzjMZUccyGTRzbvRXXpj-59">
          <mxGeometry x="0.0426" y="1" relative="1" as="geometry">
            <mxPoint as="offset" />
          </mxGeometry>
        </mxCell>
      </root>
    </mxGraphModel>
  </diagram>
</mxfile>
